<?xml version="1.0" encoding="utf-8"?>
<!-- Svg Vector Icons : http://www.onlinewebfonts.com/icon -->
<!DOCTYPE svg PUBLIC "-//W3C//DTD SVG 1.1//EN" "http://www.w3.org/Graphics/SVG/1.1/DTD/svg11.dtd">
<svg version="1.1" xmlns="http://www.w3.org/2000/svg" xmlns:xlink="http://www.w3.org/1999/xlink" x="0px" y="0px" viewBox="0 0 1000 1000" enable-background="new 0 0 1000 1000" xml:space="preserve" fill="#2ac3a2">
<metadata> Svg Vector Icons : http://www.onlinewebfonts.com/icon </metadata>
<g><path d="M500,10C229.4,10,10,229.4,10,500s219.4,490,490,490s490-219.4,490-490S770.6,10,500,10L500,10z M500,906C276.2,906,94,723.1,94,499.5C94,275.9,276.2,94,500,94s406,181.9,406,405.5C906,723.1,723.8,906,500,906L500,906z M443.5,569.4c-15.6,15.8-40.7,15.3-56.1-0.9l-69.6-74c-15.3-16.3-40.6-15.9-55.8,0.2l-4.2,4.5c-15.5,16.4-15.3,43.2,0.3,59.5l134.4,141.1c12.9,13.5,33.7,13.5,46.5,0c0.8-0.8,303.2-311,303.2-311c15.6-16,15.4-41.6-0.5-57.5l-2.8-2.8c-15.9-15.8-41.4-15.8-57,0L443.5,569.4z"/></g>
</svg>